M48
; DRILL file {KiCad 5.1.9-73d0e3b20d~88~ubuntu20.10.1} date Thu Apr 22 08:32:40 2021
; FORMAT={-:-/ absolute / inch / decimal}
; #@! TF.CreationDate,2021-04-22T08:32:40+02:00
; #@! TF.GenerationSoftware,Kicad,Pcbnew,5.1.9-73d0e3b20d~88~ubuntu20.10.1
; #@! TF.FileFunction,Plated,1,2,PTH
FMAT,2
INCH
T1C0.0157
T2C0.0276
T3C0.0315
T4C0.0354
T5C0.0394
T6C0.1260
%
G90
G05
T1
X4.446Y-3.386
X4.693Y-3.663
X4.7178Y-3.3964
X5.019Y-3.765
X5.93Y-2.969
X6.342Y-2.975
T2
X4.883Y-3.042
X5.183Y-3.042
T3
X4.883Y-3.296
X4.883Y-3.396
X4.883Y-3.496
X4.883Y-3.596
X4.883Y-3.696
X4.883Y-3.796
X4.883Y-3.896
X4.883Y-3.996
X5.183Y-3.296
X5.183Y-3.396
X5.183Y-3.496
X5.183Y-3.596
X5.183Y-3.696
X5.183Y-3.796
X5.183Y-3.896
X5.183Y-3.996
X5.426Y-3.279
X5.426Y-3.4759
X5.748Y-3.499
X5.748Y-3.599
X5.748Y-3.699
X5.748Y-3.799
X5.748Y-3.899
X5.756Y-2.826
X5.756Y-2.926
X5.756Y-3.026
X5.756Y-3.126
X5.756Y-3.226
T4
X4.246Y-3.3964
X4.246Y-3.5055
X4.246Y-3.6145
X4.246Y-3.7236
X4.346Y-3.3419
X4.346Y-3.4509
X4.346Y-3.56
X4.346Y-3.6691
X4.346Y-3.7781
T5
X6.352Y-3.149
X6.352Y-3.249
X6.352Y-3.349
X6.352Y-3.449
X6.352Y-3.549
X6.352Y-3.649
X6.352Y-3.749
X6.352Y-3.849
X6.352Y-3.949
X6.9272Y-3.149
X6.9272Y-3.249
X6.9272Y-3.349
X6.9272Y-3.449
X6.9272Y-3.549
X6.9272Y-3.649
X6.9272Y-3.749
X6.9272Y-3.849
X6.9272Y-3.949
T6
X4.296Y-3.0681
X4.296Y-4.0519
T0
M30
