%TF.GenerationSoftware,KiCad,Pcbnew,5.1.9-73d0e3b20d~88~ubuntu20.10.1*%
%TF.CreationDate,2021-04-22T08:32:01+02:00*%
%TF.ProjectId,megadrivearcadestick,6d656761-6472-4697-9665-617263616465,v0.1*%
%TF.SameCoordinates,Original*%
%TF.FileFunction,Soldermask,Top*%
%TF.FilePolarity,Negative*%
%FSLAX46Y46*%
G04 Gerber Fmt 4.6, Leading zero omitted, Abs format (unit mm)*
G04 Created by KiCad (PCBNEW 5.1.9-73d0e3b20d~88~ubuntu20.10.1) date 2021-04-22 08:32:01*
%MOMM*%
%LPD*%
G01*
G04 APERTURE LIST*
%ADD10C,4.300000*%
%ADD11R,1.600000X1.600000*%
%ADD12O,1.600000X1.600000*%
%ADD13C,1.600000*%
%ADD14C,1.700000*%
%ADD15O,1.700000X1.700000*%
%ADD16C,5.001260*%
%ADD17O,1.998980X1.501140*%
%ADD18C,1.400000*%
%ADD19O,1.400000X1.400000*%
G04 APERTURE END LIST*
D10*
%TO.C,REF\u002A\u002A*%
X105000000Y-69000000D03*
%TD*%
%TO.C,REF\u002A\u002A*%
X175000000Y-69000000D03*
%TD*%
%TO.C,REF\u002A\u002A*%
X105000000Y-111000000D03*
%TD*%
%TO.C,REF\u002A\u002A*%
X175000000Y-111000000D03*
%TD*%
D11*
%TO.C,U1*%
X124028200Y-83718400D03*
D12*
X131648200Y-101498400D03*
X124028200Y-86258400D03*
X131648200Y-98958400D03*
X124028200Y-88798400D03*
X131648200Y-96418400D03*
X124028200Y-91338400D03*
X131648200Y-93878400D03*
X124028200Y-93878400D03*
X131648200Y-91338400D03*
X124028200Y-96418400D03*
X131648200Y-88798400D03*
X124028200Y-98958400D03*
X131648200Y-86258400D03*
X124028200Y-101498400D03*
X131648200Y-83718400D03*
%TD*%
D13*
%TO.C,C1*%
X137820400Y-83286600D03*
X137820400Y-88286600D03*
%TD*%
D14*
%TO.C,J1*%
X175951400Y-100304600D03*
D15*
X175951400Y-97764600D03*
X175951400Y-95224600D03*
X175951400Y-92684600D03*
X175951400Y-90144600D03*
X175951400Y-87604600D03*
X175951400Y-85064600D03*
X175951400Y-82524600D03*
X175951400Y-79984600D03*
%TD*%
%TO.C,J2*%
X161340800Y-79984600D03*
X161340800Y-82524600D03*
X161340800Y-85064600D03*
X161340800Y-87604600D03*
X161340800Y-90144600D03*
X161340800Y-92684600D03*
X161340800Y-95224600D03*
X161340800Y-97764600D03*
D14*
X161340800Y-100304600D03*
%TD*%
D11*
%TO.C,RN1*%
X145999200Y-99034600D03*
D12*
X145999200Y-96494600D03*
X145999200Y-93954600D03*
X145999200Y-91414600D03*
X145999200Y-88874600D03*
%TD*%
%TO.C,RN2*%
X146202400Y-81940400D03*
X146202400Y-79400400D03*
X146202400Y-76860400D03*
X146202400Y-74320400D03*
D11*
X146202400Y-71780400D03*
%TD*%
D16*
%TO.C,J3*%
X109118400Y-102918260D03*
D17*
X110637320Y-90424000D03*
X110637320Y-93195140D03*
X110637320Y-95963740D03*
X110637320Y-87652860D03*
X110637320Y-84884260D03*
X107599480Y-86268560D03*
X107599480Y-89039700D03*
X107599480Y-91808300D03*
X107599480Y-94579440D03*
D16*
X109118400Y-77929740D03*
%TD*%
D18*
%TO.C,R1*%
X131648200Y-77266800D03*
D19*
X124028200Y-77266800D03*
%TD*%
M02*
