%TF.GenerationSoftware,KiCad,Pcbnew,5.1.9-73d0e3b20d~88~ubuntu20.10.1*%
%TF.CreationDate,2021-04-22T08:32:01+02:00*%
%TF.ProjectId,megadrivearcadestick,6d656761-6472-4697-9665-617263616465,v0.1*%
%TF.SameCoordinates,Original*%
%TF.FileFunction,Legend,Top*%
%TF.FilePolarity,Positive*%
%FSLAX46Y46*%
G04 Gerber Fmt 4.6, Leading zero omitted, Abs format (unit mm)*
G04 Created by KiCad (PCBNEW 5.1.9-73d0e3b20d~88~ubuntu20.10.1) date 2021-04-22 08:32:01*
%MOMM*%
%LPD*%
G01*
G04 APERTURE LIST*
%ADD10C,0.150000*%
%ADD11C,0.120000*%
G04 APERTURE END LIST*
D10*
X122490485Y-110993180D02*
X122490485Y-109993180D01*
X122919057Y-110993180D02*
X122919057Y-110469371D01*
X122871438Y-110374133D01*
X122776200Y-110326514D01*
X122633342Y-110326514D01*
X122538104Y-110374133D01*
X122490485Y-110421752D01*
X123252390Y-110326514D02*
X123633342Y-110326514D01*
X123395247Y-109993180D02*
X123395247Y-110850323D01*
X123442866Y-110945561D01*
X123538104Y-110993180D01*
X123633342Y-110993180D01*
X123823819Y-110326514D02*
X124204771Y-110326514D01*
X123966676Y-109993180D02*
X123966676Y-110850323D01*
X124014295Y-110945561D01*
X124109533Y-110993180D01*
X124204771Y-110993180D01*
X124538104Y-110326514D02*
X124538104Y-111326514D01*
X124538104Y-110374133D02*
X124633342Y-110326514D01*
X124823819Y-110326514D01*
X124919057Y-110374133D01*
X124966676Y-110421752D01*
X125014295Y-110516990D01*
X125014295Y-110802704D01*
X124966676Y-110897942D01*
X124919057Y-110945561D01*
X124823819Y-110993180D01*
X124633342Y-110993180D01*
X124538104Y-110945561D01*
X125395247Y-110945561D02*
X125490485Y-110993180D01*
X125680961Y-110993180D01*
X125776200Y-110945561D01*
X125823819Y-110850323D01*
X125823819Y-110802704D01*
X125776200Y-110707466D01*
X125680961Y-110659847D01*
X125538104Y-110659847D01*
X125442866Y-110612228D01*
X125395247Y-110516990D01*
X125395247Y-110469371D01*
X125442866Y-110374133D01*
X125538104Y-110326514D01*
X125680961Y-110326514D01*
X125776200Y-110374133D01*
X126252390Y-110897942D02*
X126300009Y-110945561D01*
X126252390Y-110993180D01*
X126204771Y-110945561D01*
X126252390Y-110897942D01*
X126252390Y-110993180D01*
X126252390Y-110374133D02*
X126300009Y-110421752D01*
X126252390Y-110469371D01*
X126204771Y-110421752D01*
X126252390Y-110374133D01*
X126252390Y-110469371D01*
X127442866Y-109945561D02*
X126585723Y-111231276D01*
X128490485Y-109945561D02*
X127633342Y-111231276D01*
X129252390Y-110326514D02*
X129252390Y-111136038D01*
X129204771Y-111231276D01*
X129157152Y-111278895D01*
X129061914Y-111326514D01*
X128919057Y-111326514D01*
X128823819Y-111278895D01*
X129252390Y-110945561D02*
X129157152Y-110993180D01*
X128966676Y-110993180D01*
X128871438Y-110945561D01*
X128823819Y-110897942D01*
X128776200Y-110802704D01*
X128776200Y-110516990D01*
X128823819Y-110421752D01*
X128871438Y-110374133D01*
X128966676Y-110326514D01*
X129157152Y-110326514D01*
X129252390Y-110374133D01*
X129728580Y-110993180D02*
X129728580Y-110326514D01*
X129728580Y-109993180D02*
X129680961Y-110040800D01*
X129728580Y-110088419D01*
X129776200Y-110040800D01*
X129728580Y-109993180D01*
X129728580Y-110088419D01*
X130061914Y-110326514D02*
X130442866Y-110326514D01*
X130204771Y-109993180D02*
X130204771Y-110850323D01*
X130252390Y-110945561D01*
X130347628Y-110993180D01*
X130442866Y-110993180D01*
X130776200Y-110993180D02*
X130776200Y-109993180D01*
X131204771Y-110993180D02*
X131204771Y-110469371D01*
X131157152Y-110374133D01*
X131061914Y-110326514D01*
X130919057Y-110326514D01*
X130823819Y-110374133D01*
X130776200Y-110421752D01*
X132109533Y-110326514D02*
X132109533Y-110993180D01*
X131680961Y-110326514D02*
X131680961Y-110850323D01*
X131728580Y-110945561D01*
X131823819Y-110993180D01*
X131966676Y-110993180D01*
X132061914Y-110945561D01*
X132109533Y-110897942D01*
X132585723Y-110993180D02*
X132585723Y-109993180D01*
X132585723Y-110374133D02*
X132680961Y-110326514D01*
X132871438Y-110326514D01*
X132966676Y-110374133D01*
X133014295Y-110421752D01*
X133061914Y-110516990D01*
X133061914Y-110802704D01*
X133014295Y-110897942D01*
X132966676Y-110945561D01*
X132871438Y-110993180D01*
X132680961Y-110993180D01*
X132585723Y-110945561D01*
X133490485Y-110897942D02*
X133538104Y-110945561D01*
X133490485Y-110993180D01*
X133442866Y-110945561D01*
X133490485Y-110897942D01*
X133490485Y-110993180D01*
X134395247Y-110945561D02*
X134300009Y-110993180D01*
X134109533Y-110993180D01*
X134014295Y-110945561D01*
X133966676Y-110897942D01*
X133919057Y-110802704D01*
X133919057Y-110516990D01*
X133966676Y-110421752D01*
X134014295Y-110374133D01*
X134109533Y-110326514D01*
X134300009Y-110326514D01*
X134395247Y-110374133D01*
X134966676Y-110993180D02*
X134871438Y-110945561D01*
X134823819Y-110897942D01*
X134776200Y-110802704D01*
X134776200Y-110516990D01*
X134823819Y-110421752D01*
X134871438Y-110374133D01*
X134966676Y-110326514D01*
X135109533Y-110326514D01*
X135204771Y-110374133D01*
X135252390Y-110421752D01*
X135300009Y-110516990D01*
X135300009Y-110802704D01*
X135252390Y-110897942D01*
X135204771Y-110945561D01*
X135109533Y-110993180D01*
X134966676Y-110993180D01*
X135728580Y-110993180D02*
X135728580Y-110326514D01*
X135728580Y-110421752D02*
X135776200Y-110374133D01*
X135871438Y-110326514D01*
X136014295Y-110326514D01*
X136109533Y-110374133D01*
X136157152Y-110469371D01*
X136157152Y-110993180D01*
X136157152Y-110469371D02*
X136204771Y-110374133D01*
X136300009Y-110326514D01*
X136442866Y-110326514D01*
X136538104Y-110374133D01*
X136585723Y-110469371D01*
X136585723Y-110993180D01*
X137776200Y-109945561D02*
X136919057Y-111231276D01*
X138300009Y-109993180D02*
X138490485Y-109993180D01*
X138585723Y-110040800D01*
X138680961Y-110136038D01*
X138728580Y-110326514D01*
X138728580Y-110659847D01*
X138680961Y-110850323D01*
X138585723Y-110945561D01*
X138490485Y-110993180D01*
X138300009Y-110993180D01*
X138204771Y-110945561D01*
X138109533Y-110850323D01*
X138061914Y-110659847D01*
X138061914Y-110326514D01*
X138109533Y-110136038D01*
X138204771Y-110040800D01*
X138300009Y-109993180D01*
X139061914Y-110326514D02*
X139585723Y-110326514D01*
X139061914Y-110993180D01*
X139585723Y-110993180D01*
X139871438Y-110326514D02*
X140395247Y-110326514D01*
X139871438Y-110993180D01*
X140395247Y-110993180D01*
X140680961Y-110326514D02*
X140919057Y-110993180D01*
X141157152Y-110326514D02*
X140919057Y-110993180D01*
X140823819Y-111231276D01*
X140776200Y-111278895D01*
X140680961Y-111326514D01*
X141538104Y-110993180D02*
X141538104Y-109993180D01*
X141538104Y-110374133D02*
X141633342Y-110326514D01*
X141823819Y-110326514D01*
X141919057Y-110374133D01*
X141966676Y-110421752D01*
X142014295Y-110516990D01*
X142014295Y-110802704D01*
X141966676Y-110897942D01*
X141919057Y-110945561D01*
X141823819Y-110993180D01*
X141633342Y-110993180D01*
X141538104Y-110945561D01*
X142585723Y-110993180D02*
X142490485Y-110945561D01*
X142442866Y-110897942D01*
X142395247Y-110802704D01*
X142395247Y-110516990D01*
X142442866Y-110421752D01*
X142490485Y-110374133D01*
X142585723Y-110326514D01*
X142728580Y-110326514D01*
X142823819Y-110374133D01*
X142871438Y-110421752D01*
X142919057Y-110516990D01*
X142919057Y-110802704D01*
X142871438Y-110897942D01*
X142823819Y-110945561D01*
X142728580Y-110993180D01*
X142585723Y-110993180D01*
X143300009Y-110945561D02*
X143395247Y-110993180D01*
X143585723Y-110993180D01*
X143680961Y-110945561D01*
X143728580Y-110850323D01*
X143728580Y-110802704D01*
X143680961Y-110707466D01*
X143585723Y-110659847D01*
X143442866Y-110659847D01*
X143347628Y-110612228D01*
X143300009Y-110516990D01*
X143300009Y-110469371D01*
X143347628Y-110374133D01*
X143442866Y-110326514D01*
X143585723Y-110326514D01*
X143680961Y-110374133D01*
X144157152Y-110993180D02*
X144157152Y-109993180D01*
X144585723Y-110993180D02*
X144585723Y-110469371D01*
X144538104Y-110374133D01*
X144442866Y-110326514D01*
X144300009Y-110326514D01*
X144204771Y-110374133D01*
X144157152Y-110421752D01*
X145061914Y-110993180D02*
X145061914Y-110326514D01*
X145061914Y-109993180D02*
X145014295Y-110040800D01*
X145061914Y-110088419D01*
X145109533Y-110040800D01*
X145061914Y-109993180D01*
X145061914Y-110088419D01*
X146252390Y-109945561D02*
X145395247Y-111231276D01*
X146585723Y-110993180D02*
X146585723Y-109993180D01*
X146919057Y-110707466D01*
X147252390Y-109993180D01*
X147252390Y-110993180D01*
X148109533Y-110945561D02*
X148014295Y-110993180D01*
X147823819Y-110993180D01*
X147728580Y-110945561D01*
X147680961Y-110850323D01*
X147680961Y-110469371D01*
X147728580Y-110374133D01*
X147823819Y-110326514D01*
X148014295Y-110326514D01*
X148109533Y-110374133D01*
X148157152Y-110469371D01*
X148157152Y-110564609D01*
X147680961Y-110659847D01*
X149014295Y-110326514D02*
X149014295Y-111136038D01*
X148966676Y-111231276D01*
X148919057Y-111278895D01*
X148823819Y-111326514D01*
X148680961Y-111326514D01*
X148585723Y-111278895D01*
X149014295Y-110945561D02*
X148919057Y-110993180D01*
X148728580Y-110993180D01*
X148633342Y-110945561D01*
X148585723Y-110897942D01*
X148538104Y-110802704D01*
X148538104Y-110516990D01*
X148585723Y-110421752D01*
X148633342Y-110374133D01*
X148728580Y-110326514D01*
X148919057Y-110326514D01*
X149014295Y-110374133D01*
X149919057Y-110993180D02*
X149919057Y-110469371D01*
X149871438Y-110374133D01*
X149776200Y-110326514D01*
X149585723Y-110326514D01*
X149490485Y-110374133D01*
X149919057Y-110945561D02*
X149823819Y-110993180D01*
X149585723Y-110993180D01*
X149490485Y-110945561D01*
X149442866Y-110850323D01*
X149442866Y-110755085D01*
X149490485Y-110659847D01*
X149585723Y-110612228D01*
X149823819Y-110612228D01*
X149919057Y-110564609D01*
X150823819Y-110993180D02*
X150823819Y-109993180D01*
X150823819Y-110945561D02*
X150728580Y-110993180D01*
X150538104Y-110993180D01*
X150442866Y-110945561D01*
X150395247Y-110897942D01*
X150347628Y-110802704D01*
X150347628Y-110516990D01*
X150395247Y-110421752D01*
X150442866Y-110374133D01*
X150538104Y-110326514D01*
X150728580Y-110326514D01*
X150823819Y-110374133D01*
X151300009Y-110993180D02*
X151300009Y-110326514D01*
X151300009Y-110516990D02*
X151347628Y-110421752D01*
X151395247Y-110374133D01*
X151490485Y-110326514D01*
X151585723Y-110326514D01*
X151919057Y-110993180D02*
X151919057Y-110326514D01*
X151919057Y-109993180D02*
X151871438Y-110040800D01*
X151919057Y-110088419D01*
X151966676Y-110040800D01*
X151919057Y-109993180D01*
X151919057Y-110088419D01*
X152300009Y-110326514D02*
X152538104Y-110993180D01*
X152776200Y-110326514D01*
X153538104Y-110945561D02*
X153442866Y-110993180D01*
X153252390Y-110993180D01*
X153157152Y-110945561D01*
X153109533Y-110850323D01*
X153109533Y-110469371D01*
X153157152Y-110374133D01*
X153252390Y-110326514D01*
X153442866Y-110326514D01*
X153538104Y-110374133D01*
X153585723Y-110469371D01*
X153585723Y-110564609D01*
X153109533Y-110659847D01*
X153966676Y-110945561D02*
X154061914Y-110993180D01*
X154252390Y-110993180D01*
X154347628Y-110945561D01*
X154395247Y-110850323D01*
X154395247Y-110802704D01*
X154347628Y-110707466D01*
X154252390Y-110659847D01*
X154109533Y-110659847D01*
X154014295Y-110612228D01*
X153966676Y-110516990D01*
X153966676Y-110469371D01*
X154014295Y-110374133D01*
X154109533Y-110326514D01*
X154252390Y-110326514D01*
X154347628Y-110374133D01*
X154680961Y-110326514D02*
X155061914Y-110326514D01*
X154823819Y-109993180D02*
X154823819Y-110850323D01*
X154871438Y-110945561D01*
X154966676Y-110993180D01*
X155061914Y-110993180D01*
X155395247Y-110993180D02*
X155395247Y-110326514D01*
X155395247Y-109993180D02*
X155347628Y-110040800D01*
X155395247Y-110088419D01*
X155442866Y-110040800D01*
X155395247Y-109993180D01*
X155395247Y-110088419D01*
X156300009Y-110945561D02*
X156204771Y-110993180D01*
X156014295Y-110993180D01*
X155919057Y-110945561D01*
X155871438Y-110897942D01*
X155823819Y-110802704D01*
X155823819Y-110516990D01*
X155871438Y-110421752D01*
X155919057Y-110374133D01*
X156014295Y-110326514D01*
X156204771Y-110326514D01*
X156300009Y-110374133D01*
X156728580Y-110993180D02*
X156728580Y-109993180D01*
X156823819Y-110612228D02*
X157109533Y-110993180D01*
X157109533Y-110326514D02*
X156728580Y-110707466D01*
D11*
%TO.C,U1*%
X126838200Y-82388400D02*
X125188200Y-82388400D01*
X125188200Y-82388400D02*
X125188200Y-102828400D01*
X125188200Y-102828400D02*
X130488200Y-102828400D01*
X130488200Y-102828400D02*
X130488200Y-82388400D01*
X130488200Y-82388400D02*
X128838200Y-82388400D01*
X122698200Y-82328400D02*
X122698200Y-102888400D01*
X122698200Y-102888400D02*
X132978200Y-102888400D01*
X132978200Y-102888400D02*
X132978200Y-82328400D01*
X132978200Y-82328400D02*
X122698200Y-82328400D01*
X128838200Y-82388400D02*
G75*
G02*
X126838200Y-82388400I-1000000J0D01*
G01*
%TO.C,C1*%
X139190400Y-89406600D02*
X136450400Y-89406600D01*
X139190400Y-82166600D02*
X136450400Y-82166600D01*
X136450400Y-82166600D02*
X136450400Y-89406600D01*
X139190400Y-82166600D02*
X139190400Y-89406600D01*
%TO.C,J1*%
X177281400Y-78654600D02*
X174621400Y-78654600D01*
X177281400Y-101634600D02*
X177281400Y-78654600D01*
X174621400Y-101634600D02*
X174621400Y-78654600D01*
X177281400Y-101634600D02*
X174621400Y-101634600D01*
%TO.C,J2*%
X162670800Y-101634600D02*
X160010800Y-101634600D01*
X160010800Y-101634600D02*
X160010800Y-78654600D01*
X162670800Y-101634600D02*
X162670800Y-78654600D01*
X162670800Y-78654600D02*
X160010800Y-78654600D01*
%TO.C,RN1*%
X144599200Y-100474600D02*
X147399200Y-100474600D01*
X147399200Y-100474600D02*
X147399200Y-87434600D01*
X147399200Y-87434600D02*
X144599200Y-87434600D01*
X144599200Y-87434600D02*
X144599200Y-100474600D01*
X144599200Y-97764600D02*
X147399200Y-97764600D01*
%TO.C,RN2*%
X147602400Y-73050400D02*
X144802400Y-73050400D01*
X147602400Y-83380400D02*
X147602400Y-70340400D01*
X144802400Y-83380400D02*
X147602400Y-83380400D01*
X144802400Y-70340400D02*
X144802400Y-83380400D01*
X147602400Y-70340400D02*
X144802400Y-70340400D01*
%TO.C,J3*%
X112420400Y-74930000D02*
X100101400Y-74930000D01*
X112420400Y-105918000D02*
X112420400Y-74930000D01*
X100101400Y-105918000D02*
X112420400Y-105918000D01*
X100101400Y-74930000D02*
X100101400Y-105918000D01*
X100101400Y-81407000D02*
X112420400Y-81407000D01*
X100101400Y-99441000D02*
X112420400Y-99441000D01*
X102641400Y-78994000D02*
X100506400Y-78994000D01*
X102641400Y-76708000D02*
X102641400Y-78994000D01*
X100506400Y-76708000D02*
X102641400Y-76708000D01*
X102641400Y-104140000D02*
X100506400Y-104140000D01*
X102641400Y-101854000D02*
X102641400Y-104140000D01*
X100506400Y-101854000D02*
X102641400Y-101854000D01*
X100106400Y-80264000D02*
X100482400Y-80264000D01*
X100482400Y-75438000D02*
X100106400Y-75438000D01*
X100482400Y-80264000D02*
X100482400Y-75438000D01*
X100106400Y-105283000D02*
X100482400Y-105283000D01*
X100482400Y-100711000D02*
X100106400Y-100711000D01*
X100482400Y-105283000D02*
X100482400Y-100711000D01*
X109118400Y-76327000D02*
X109118400Y-79502000D01*
X106832400Y-75692000D02*
X109118400Y-76327000D01*
X100482400Y-75692000D02*
X106832400Y-75692000D01*
X106959400Y-80010000D02*
X100482400Y-80010000D01*
X109118400Y-79502000D02*
X106959400Y-80010000D01*
X106959400Y-105029000D02*
X100482400Y-105029000D01*
X109118400Y-104521000D02*
X106959400Y-105029000D01*
X109118400Y-101346000D02*
X109118400Y-104521000D01*
X107086400Y-100965000D02*
X109118400Y-101346000D01*
X100482400Y-100965000D02*
X107086400Y-100965000D01*
%TO.C,R1*%
X124968200Y-77266800D02*
X125918200Y-77266800D01*
X130708200Y-77266800D02*
X129758200Y-77266800D01*
X125918200Y-78186800D02*
X129758200Y-78186800D01*
X125918200Y-76346800D02*
X125918200Y-78186800D01*
X129758200Y-76346800D02*
X125918200Y-76346800D01*
X129758200Y-78186800D02*
X129758200Y-76346800D01*
%TO.C,U1*%
D10*
X127076295Y-80840780D02*
X127076295Y-81650304D01*
X127123914Y-81745542D01*
X127171533Y-81793161D01*
X127266771Y-81840780D01*
X127457247Y-81840780D01*
X127552485Y-81793161D01*
X127600104Y-81745542D01*
X127647723Y-81650304D01*
X127647723Y-80840780D01*
X128647723Y-81840780D02*
X128076295Y-81840780D01*
X128362009Y-81840780D02*
X128362009Y-80840780D01*
X128266771Y-80983638D01*
X128171533Y-81078876D01*
X128076295Y-81126495D01*
%TO.C,C1*%
X140677542Y-85953266D02*
X140725161Y-86000885D01*
X140772780Y-86143742D01*
X140772780Y-86238980D01*
X140725161Y-86381838D01*
X140629923Y-86477076D01*
X140534685Y-86524695D01*
X140344209Y-86572314D01*
X140201352Y-86572314D01*
X140010876Y-86524695D01*
X139915638Y-86477076D01*
X139820400Y-86381838D01*
X139772780Y-86238980D01*
X139772780Y-86143742D01*
X139820400Y-86000885D01*
X139868019Y-85953266D01*
X140772780Y-85000885D02*
X140772780Y-85572314D01*
X140772780Y-85286600D02*
X139772780Y-85286600D01*
X139915638Y-85381838D01*
X140010876Y-85477076D01*
X140058495Y-85572314D01*
%TO.C,J1*%
X175618066Y-102086980D02*
X175618066Y-102801266D01*
X175570447Y-102944123D01*
X175475209Y-103039361D01*
X175332352Y-103086980D01*
X175237114Y-103086980D01*
X176618066Y-103086980D02*
X176046638Y-103086980D01*
X176332352Y-103086980D02*
X176332352Y-102086980D01*
X176237114Y-102229838D01*
X176141876Y-102325076D01*
X176046638Y-102372695D01*
%TO.C,J2*%
X161007466Y-102086980D02*
X161007466Y-102801266D01*
X160959847Y-102944123D01*
X160864609Y-103039361D01*
X160721752Y-103086980D01*
X160626514Y-103086980D01*
X161436038Y-102182219D02*
X161483657Y-102134600D01*
X161578895Y-102086980D01*
X161816990Y-102086980D01*
X161912228Y-102134600D01*
X161959847Y-102182219D01*
X162007466Y-102277457D01*
X162007466Y-102372695D01*
X161959847Y-102515552D01*
X161388419Y-103086980D01*
X162007466Y-103086980D01*
%TO.C,RN1*%
X144051580Y-93375076D02*
X143575390Y-93708409D01*
X144051580Y-93946504D02*
X143051580Y-93946504D01*
X143051580Y-93565552D01*
X143099200Y-93470314D01*
X143146819Y-93422695D01*
X143242057Y-93375076D01*
X143384914Y-93375076D01*
X143480152Y-93422695D01*
X143527771Y-93470314D01*
X143575390Y-93565552D01*
X143575390Y-93946504D01*
X144051580Y-92946504D02*
X143051580Y-92946504D01*
X144051580Y-92375076D01*
X143051580Y-92375076D01*
X144051580Y-91375076D02*
X144051580Y-91946504D01*
X144051580Y-91660790D02*
X143051580Y-91660790D01*
X143194438Y-91756028D01*
X143289676Y-91851266D01*
X143337295Y-91946504D01*
%TO.C,RN2*%
X149054780Y-78820876D02*
X148578590Y-79154209D01*
X149054780Y-79392304D02*
X148054780Y-79392304D01*
X148054780Y-79011352D01*
X148102400Y-78916114D01*
X148150019Y-78868495D01*
X148245257Y-78820876D01*
X148388114Y-78820876D01*
X148483352Y-78868495D01*
X148530971Y-78916114D01*
X148578590Y-79011352D01*
X148578590Y-79392304D01*
X149054780Y-78392304D02*
X148054780Y-78392304D01*
X149054780Y-77820876D01*
X148054780Y-77820876D01*
X148150019Y-77392304D02*
X148102400Y-77344685D01*
X148054780Y-77249447D01*
X148054780Y-77011352D01*
X148102400Y-76916114D01*
X148150019Y-76868495D01*
X148245257Y-76820876D01*
X148340495Y-76820876D01*
X148483352Y-76868495D01*
X149054780Y-77439923D01*
X149054780Y-76820876D01*
%TO.C,J3*%
X103958780Y-90757333D02*
X104673066Y-90757333D01*
X104815923Y-90804952D01*
X104911161Y-90900190D01*
X104958780Y-91043047D01*
X104958780Y-91138285D01*
X103958780Y-90376380D02*
X103958780Y-89757333D01*
X104339733Y-90090666D01*
X104339733Y-89947809D01*
X104387352Y-89852571D01*
X104434971Y-89804952D01*
X104530209Y-89757333D01*
X104768304Y-89757333D01*
X104863542Y-89804952D01*
X104911161Y-89852571D01*
X104958780Y-89947809D01*
X104958780Y-90233523D01*
X104911161Y-90328761D01*
X104863542Y-90376380D01*
X102458780Y-100519238D02*
X101458780Y-100519238D01*
X101458780Y-100281142D01*
X101506400Y-100138285D01*
X101601638Y-100043047D01*
X101696876Y-99995428D01*
X101887352Y-99947809D01*
X102030209Y-99947809D01*
X102220685Y-99995428D01*
X102315923Y-100043047D01*
X102411161Y-100138285D01*
X102458780Y-100281142D01*
X102458780Y-100519238D01*
X101934971Y-99185904D02*
X101982590Y-99043047D01*
X102030209Y-98995428D01*
X102125447Y-98947809D01*
X102268304Y-98947809D01*
X102363542Y-98995428D01*
X102411161Y-99043047D01*
X102458780Y-99138285D01*
X102458780Y-99519238D01*
X101458780Y-99519238D01*
X101458780Y-99185904D01*
X101506400Y-99090666D01*
X101554019Y-99043047D01*
X101649257Y-98995428D01*
X101744495Y-98995428D01*
X101839733Y-99043047D01*
X101887352Y-99090666D01*
X101934971Y-99185904D01*
X101934971Y-99519238D01*
X102458780Y-98471619D02*
X102458780Y-98281142D01*
X102411161Y-98185904D01*
X102363542Y-98138285D01*
X102220685Y-98043047D01*
X102030209Y-97995428D01*
X101649257Y-97995428D01*
X101554019Y-98043047D01*
X101506400Y-98090666D01*
X101458780Y-98185904D01*
X101458780Y-98376380D01*
X101506400Y-98471619D01*
X101554019Y-98519238D01*
X101649257Y-98566857D01*
X101887352Y-98566857D01*
X101982590Y-98519238D01*
X102030209Y-98471619D01*
X102077828Y-98376380D01*
X102077828Y-98185904D01*
X102030209Y-98090666D01*
X101982590Y-98043047D01*
X101887352Y-97995428D01*
X102554019Y-97804952D02*
X102554019Y-97043047D01*
X101934971Y-96471619D02*
X101934971Y-96804952D01*
X102458780Y-96804952D02*
X101458780Y-96804952D01*
X101458780Y-96328761D01*
X102411161Y-95566857D02*
X102458780Y-95662095D01*
X102458780Y-95852571D01*
X102411161Y-95947809D01*
X102315923Y-95995428D01*
X101934971Y-95995428D01*
X101839733Y-95947809D01*
X101792114Y-95852571D01*
X101792114Y-95662095D01*
X101839733Y-95566857D01*
X101934971Y-95519238D01*
X102030209Y-95519238D01*
X102125447Y-95995428D01*
X102458780Y-95090666D02*
X101792114Y-95090666D01*
X101887352Y-95090666D02*
X101839733Y-95043047D01*
X101792114Y-94947809D01*
X101792114Y-94804952D01*
X101839733Y-94709714D01*
X101934971Y-94662095D01*
X102458780Y-94662095D01*
X101934971Y-94662095D02*
X101839733Y-94614476D01*
X101792114Y-94519238D01*
X101792114Y-94376380D01*
X101839733Y-94281142D01*
X101934971Y-94233523D01*
X102458780Y-94233523D01*
X102458780Y-93328761D02*
X101934971Y-93328761D01*
X101839733Y-93376380D01*
X101792114Y-93471619D01*
X101792114Y-93662095D01*
X101839733Y-93757333D01*
X102411161Y-93328761D02*
X102458780Y-93424000D01*
X102458780Y-93662095D01*
X102411161Y-93757333D01*
X102315923Y-93804952D01*
X102220685Y-93804952D01*
X102125447Y-93757333D01*
X102077828Y-93662095D01*
X102077828Y-93424000D01*
X102030209Y-93328761D01*
X102458780Y-92709714D02*
X102411161Y-92804952D01*
X102315923Y-92852571D01*
X101458780Y-92852571D01*
X102411161Y-91947809D02*
X102458780Y-92043047D01*
X102458780Y-92233523D01*
X102411161Y-92328761D01*
X102315923Y-92376380D01*
X101934971Y-92376380D01*
X101839733Y-92328761D01*
X101792114Y-92233523D01*
X101792114Y-92043047D01*
X101839733Y-91947809D01*
X101934971Y-91900190D01*
X102030209Y-91900190D01*
X102125447Y-92376380D01*
X102554019Y-91709714D02*
X102554019Y-90947809D01*
X102458780Y-90709714D02*
X101458780Y-90709714D01*
X102173066Y-90376380D01*
X101458780Y-90043047D01*
X102458780Y-90043047D01*
X102458780Y-89424000D02*
X102411161Y-89519238D01*
X102363542Y-89566857D01*
X102268304Y-89614476D01*
X101982590Y-89614476D01*
X101887352Y-89566857D01*
X101839733Y-89519238D01*
X101792114Y-89424000D01*
X101792114Y-89281142D01*
X101839733Y-89185904D01*
X101887352Y-89138285D01*
X101982590Y-89090666D01*
X102268304Y-89090666D01*
X102363542Y-89138285D01*
X102411161Y-89185904D01*
X102458780Y-89281142D01*
X102458780Y-89424000D01*
X101792114Y-88233523D02*
X102458780Y-88233523D01*
X101792114Y-88662095D02*
X102315923Y-88662095D01*
X102411161Y-88614476D01*
X102458780Y-88519238D01*
X102458780Y-88376380D01*
X102411161Y-88281142D01*
X102363542Y-88233523D01*
X101792114Y-87757333D02*
X102458780Y-87757333D01*
X101887352Y-87757333D02*
X101839733Y-87709714D01*
X101792114Y-87614476D01*
X101792114Y-87471619D01*
X101839733Y-87376380D01*
X101934971Y-87328761D01*
X102458780Y-87328761D01*
X101792114Y-86995428D02*
X101792114Y-86614476D01*
X101458780Y-86852571D02*
X102315923Y-86852571D01*
X102411161Y-86804952D01*
X102458780Y-86709714D01*
X102458780Y-86614476D01*
X102458780Y-86281142D02*
X101792114Y-86281142D01*
X101458780Y-86281142D02*
X101506400Y-86328761D01*
X101554019Y-86281142D01*
X101506400Y-86233523D01*
X101458780Y-86281142D01*
X101554019Y-86281142D01*
X101792114Y-85804952D02*
X102458780Y-85804952D01*
X101887352Y-85804952D02*
X101839733Y-85757333D01*
X101792114Y-85662095D01*
X101792114Y-85519238D01*
X101839733Y-85424000D01*
X101934971Y-85376380D01*
X102458780Y-85376380D01*
X101792114Y-84471619D02*
X102601638Y-84471619D01*
X102696876Y-84519238D01*
X102744495Y-84566857D01*
X102792114Y-84662095D01*
X102792114Y-84804952D01*
X102744495Y-84900190D01*
X102411161Y-84471619D02*
X102458780Y-84566857D01*
X102458780Y-84757333D01*
X102411161Y-84852571D01*
X102363542Y-84900190D01*
X102268304Y-84947809D01*
X101982590Y-84947809D01*
X101887352Y-84900190D01*
X101839733Y-84852571D01*
X101792114Y-84757333D01*
X101792114Y-84566857D01*
X101839733Y-84471619D01*
X102458780Y-83995428D02*
X101458780Y-83995428D01*
X101934971Y-83995428D02*
X101934971Y-83424000D01*
X102458780Y-83424000D02*
X101458780Y-83424000D01*
X102458780Y-82804952D02*
X102411161Y-82900190D01*
X102363542Y-82947809D01*
X102268304Y-82995428D01*
X101982590Y-82995428D01*
X101887352Y-82947809D01*
X101839733Y-82900190D01*
X101792114Y-82804952D01*
X101792114Y-82662095D01*
X101839733Y-82566857D01*
X101887352Y-82519238D01*
X101982590Y-82471619D01*
X102268304Y-82471619D01*
X102363542Y-82519238D01*
X102411161Y-82566857D01*
X102458780Y-82662095D01*
X102458780Y-82804952D01*
X102458780Y-81900190D02*
X102411161Y-81995428D01*
X102315923Y-82043047D01*
X101458780Y-82043047D01*
X102411161Y-81138285D02*
X102458780Y-81233523D01*
X102458780Y-81424000D01*
X102411161Y-81519238D01*
X102315923Y-81566857D01*
X101934971Y-81566857D01*
X101839733Y-81519238D01*
X101792114Y-81424000D01*
X101792114Y-81233523D01*
X101839733Y-81138285D01*
X101934971Y-81090666D01*
X102030209Y-81090666D01*
X102125447Y-81566857D01*
X102411161Y-80709714D02*
X102458780Y-80614476D01*
X102458780Y-80424000D01*
X102411161Y-80328761D01*
X102315923Y-80281142D01*
X102268304Y-80281142D01*
X102173066Y-80328761D01*
X102125447Y-80424000D01*
X102125447Y-80566857D01*
X102077828Y-80662095D01*
X101982590Y-80709714D01*
X101934971Y-80709714D01*
X101839733Y-80662095D01*
X101792114Y-80566857D01*
X101792114Y-80424000D01*
X101839733Y-80328761D01*
%TO.C,R1*%
X127671533Y-79639180D02*
X127338200Y-79162990D01*
X127100104Y-79639180D02*
X127100104Y-78639180D01*
X127481057Y-78639180D01*
X127576295Y-78686800D01*
X127623914Y-78734419D01*
X127671533Y-78829657D01*
X127671533Y-78972514D01*
X127623914Y-79067752D01*
X127576295Y-79115371D01*
X127481057Y-79162990D01*
X127100104Y-79162990D01*
X128623914Y-79639180D02*
X128052485Y-79639180D01*
X128338200Y-79639180D02*
X128338200Y-78639180D01*
X128242961Y-78782038D01*
X128147723Y-78877276D01*
X128052485Y-78924895D01*
%TD*%
M02*
